<?xml version="1.0" encoding="UTF-8" standalone="no"?>
<svg width="100%" height="100%" viewBox="0 0 1000 1000" version="1.1" xmlns="http://www.w3.org/2000/svg" xmlns:xlink="http://www.w3.org/1999/xlink" xml:space="preserve" style="fill-rule:evenodd;clip-rule:evenodd;stroke-linejoin:round;stroke-miterlimit:2;">
    <g transform="matrix(2.087081,0,0,2.087081,-83.334976,-438.447539)">
        <path d="M163.555,299.973C162.703,300.602 161.207,303.996 160.23,307.52C155.301,325.293 143.07,342.852 128.777,352.676C121.531,357.656 109.34,363 99.465,365.523L90.086,367.922L89.844,399.387C89.672,421.848 89.898,431.211 90.645,432.105C92.023,433.766 99.727,433.715 110.457,431.98C126.199,429.43 138.305,424.316 150.594,415.023L156.508,410.551L156.508,597.984L158.547,599.406C160.289,600.629 165.008,600.832 191.59,600.832C211.211,600.832 223.246,600.484 224.367,599.887C226.109,598.957 226.141,596.32 226.141,450.398C226.141,307.656 226.074,301.797 224.465,300.344C222.98,299 219.5,298.828 193.945,298.828C172.309,298.828 164.719,299.113 163.555,299.973" style="fill:#255253;"/>
    </g>
    <g transform="matrix(2.087081,0,0,2.087081,-80.705254,-439.198889)">
        <path d="M233.84,300.562L231.867,302.535L232.266,396.375C232.648,486.414 232.738,490.586 234.5,499.227C241.125,531.707 256.055,555.977 281.109,575C291.523,582.906 308.408,592.438 324.005,595.257C365.078,602.679 392.248,593.762 407.703,588.691L407.703,592.355C407.703,595.926 407.766,596 410.039,595.133C413.531,593.805 423.758,586.984 429.008,582.477C452.434,562.367 466.121,534.281 467.785,502.891C468.867,482.516 464.531,464.359 454.332,446.531C437.184,416.562 409.809,396.77 376.168,390.023C365.66,387.918 345.867,387.961 335.621,390.117C327.039,391.922 316.555,395.383 313.387,397.457L311.293,398.828L311.293,437.898C311.293,474.27 311.402,477.008 312.871,477.586C314.012,478.031 315.066,477.379 316.699,475.207C321.586,468.703 329.027,462.199 334.719,459.449C358.316,448.062 385.898,457.312 396.453,480.152C404.867,498.352 401.613,518.121 387.965,531.766C379.348,540.383 368.148,544.719 354.516,544.719C335.387,544.719 317.859,533.77 309.602,516.652C307.605,512.52 305.477,507.312 304.867,505.082C304.051,502.098 303.613,480.379 303.211,422.66C302.715,352.148 302.504,343.746 301.105,338.883C295.926,320.891 282.637,307.203 264.766,301.445C260.23,299.98 255.551,299.336 247.199,299.02C236.391,298.613 235.711,298.691 233.84,300.562" style="fill:#255253;"/>
    </g>
</svg>
